<?xml version="1.0" encoding="utf-8"?><svg viewBox="0 0 22 22" xmlns="http://www.w3.org/2000/svg" xmlns:xlink="http://www.w3.org/1999/xlink"><style>:root>svg{display:none}:root>svg:target{display:block}</style><svg fill="none" viewBox="0 0 10 18" id="facebookf" xmlns="http://www.w3.org/2000/svg"><path d="M8.971 10.125l.497-3.258H6.356V4.754c0-.89.435-1.76 1.829-1.76H9.6V.22S8.316 0 7.088 0C4.525 0 2.849 1.56 2.849 4.385v2.482H0v3.258h2.85V18h3.506v-7.875h2.615z" fill="#4267B2"/></svg><svg fill="none" viewBox="0 0 18 19" id="instagrami" xmlns="http://www.w3.org/2000/svg"><path d="M9 1.623c2.403 0 2.688.009 3.637.052.877.04 1.354.187 1.671.31.391.144.745.374 1.036.673.3.29.53.645.673 1.036.123.317.27.794.31 1.671.043.95.052 1.234.052 3.637s-.009 2.688-.052 3.637c-.04.877-.187 1.354-.31 1.671a2.98 2.98 0 01-1.708 1.708c-.317.123-.794.27-1.671.31-.949.043-1.234.053-3.637.053s-2.688-.01-3.637-.053c-.877-.04-1.354-.186-1.671-.31a2.789 2.789 0 01-1.036-.673 2.789 2.789 0 01-.673-1.036c-.123-.317-.27-.794-.31-1.671-.043-.949-.052-1.234-.052-3.637s.009-2.688.052-3.637c.04-.877.187-1.354.31-1.671.144-.391.374-.745.673-1.036.29-.3.645-.53 1.036-.673.317-.123.794-.27 1.671-.31.95-.043 1.234-.052 3.637-.052H9zM9.001 0c-2.444 0-2.75.01-3.71.054s-1.614.197-2.186.42C2.504.7 1.96 1.054 1.51 1.512c-.457.45-.811.993-1.037 1.594C.25 3.678.098 4.332.054 5.29.011 6.248 0 6.557 0 9.001s.01 2.75.054 3.71.196 1.613.419 2.185c.226.601.58 1.145 1.038 1.595.45.457.993.812 1.594 1.038.571.222 1.226.375 2.184.418.958.044 1.267.054 3.711.054s2.75-.01 3.71-.054 1.613-.196 2.185-.418a4.603 4.603 0 002.633-2.633c.222-.571.374-1.226.418-2.184.044-.958.054-1.267.054-3.71 0-2.445-.01-2.752-.054-3.712-.044-.96-.196-1.612-.418-2.184a4.411 4.411 0 00-1.038-1.594A4.41 4.41 0 0014.894.473C14.323.251 13.67.1 12.711.055 11.753.012 11.444.001 9 .001L9.001 0z" fill="url(#bpaint0_radial)"/><path d="M9 4.38a4.621 4.621 0 100 9.243A4.621 4.621 0 009 4.38zm0 7.622a3 3 0 110-6 3 3 0 010 6z" fill="url(#bpaint1_radial)"/><path d="M13.805 5.277a1.08 1.08 0 100-2.16 1.08 1.08 0 000 2.16z" fill="url(#bpaint2_radial)"/><defs><radialGradient id="bpaint0_radial" cx="0" cy="0" r="1" gradientUnits="userSpaceOnUse" gradientTransform="matrix(37.5181 0 0 37.5203 -1.966 24.305)"><stop stop-color="#F9ED41"/><stop offset=".241" stop-color="#FF833D"/><stop offset=".401" stop-color="#EE5568"/><stop offset=".489" stop-color="#E7407B"/><stop offset="1" stop-color="#0028FF"/></radialGradient><radialGradient id="bpaint1_radial" cx="0" cy="0" r="1" gradientUnits="userSpaceOnUse" gradientTransform="translate(3.37 16.86) scale(19.265)"><stop stop-color="#F9ED41"/><stop offset=".241" stop-color="#FF833D"/><stop offset=".401" stop-color="#EE5568"/><stop offset=".489" stop-color="#E7407B"/><stop offset="1" stop-color="#0028FF"/></radialGradient><radialGradient id="bpaint2_radial" cx="0" cy="0" r="1" gradientUnits="userSpaceOnUse" gradientTransform="translate(12.489 6.033) scale(4.50202)"><stop stop-color="#F9ED41"/><stop offset=".241" stop-color="#FF833D"/><stop offset=".401" stop-color="#EE5568"/><stop offset=".489" stop-color="#E7407B"/><stop offset="1" stop-color="#0028FF"/></radialGradient></defs></svg><svg fill="none" viewBox="0 0 16 20" id="itunes" xmlns="http://www.w3.org/2000/svg"><path d="M13.746 17.75c.927-.278 1.582-.951 1.854-1.909l.08-.278.013-7.525c.006-5.635 0-7.562-.031-7.667a.668.668 0 00-.149-.278.65.65 0 00-.352-.093c-.092 0-.414.043-.71.099-1.322.247-9.12 1.835-9.255 1.884-.204.08-.408.266-.507.457l-.08.167s-.037 11.8-.1 11.93c-.092.204-.29.396-.475.458-.086.03-.439.11-.772.179-1.563.321-2.144.55-2.638 1.044a2.183 2.183 0 00-.575 1.063c-.086.383-.055.957.068 1.31.13.364.334.679.6.92.24.192.53.334.858.42.717.185 2.058-.018 2.743-.426.284-.167.655-.525.847-.816.074-.117.191-.352.253-.519.222-.593.229-11.164.26-11.294a.56.56 0 01.407-.444c.186-.05 7.698-1.57 7.908-1.6.186-.025.365.036.458.154.055.03.105.074.136.123.061.093.061.278.074 3.62.012 3.85.012 3.763-.192 4.004-.148.18-.333.247-1.1.402-1.161.24-1.556.358-2.001.58-.556.279-.865.582-1.1 1.088-.167.358-.235.624-.229.982 0 .637.217 1.131.699 1.62.043.042.086.086.13.123.24.191.493.309.802.383.458.111 1.415.037 2.076-.16z" fill="url(#cpaint0_linear)"/><defs><linearGradient id="cpaint0_linear" x1="-.408" y1="-1.224" x2="17.587" y2="22.132" gradientUnits="userSpaceOnUse"><stop stop-color="#FF5E50"/><stop offset=".249" stop-color="#FE5C6C"/><stop offset=".377" stop-color="#E3658A"/><stop offset=".497" stop-color="#B87EB0"/><stop offset=".627" stop-color="#916CFF"/><stop offset=".763" stop-color="#70BCFB" stop-opacity=".918"/><stop offset="1" stop-color="#21C7FE"/></linearGradient></defs></svg><svg fill="none" viewBox="0 0 20 18" id="telegramm" xmlns="http://www.w3.org/2000/svg"><path d="M.35 8.374L4.95 10.09l1.792 5.767c.078.39.546.467.858.234l2.571-2.105c.234-.233.624-.233.935 0l4.599 3.351c.311.234.779.078.857-.311L19.99.659c.078-.39-.312-.78-.701-.624L.35 7.361c-.468.156-.468.857 0 1.013zm6.157.857l9.04-5.533c.157-.078.313.156.157.234L8.3 10.868c-.234.234-.468.546-.468.935l-.233 1.87c0 .234-.39.312-.468 0l-.935-3.428c-.234-.39-.078-.858.311-1.014z" fill="#179CDE"/></svg><svg fill="none" viewBox="0 0 18 20" id="tiktok" xmlns="http://www.w3.org/2000/svg"><path d="M3.281 12.922c.117-.997.509-1.552 1.245-2.125 1.056-.772 2.373-.335 2.373-.335V7.864c.32-.008.64.011.956.06v3.34s-1.316-.436-2.373.336c-.736.572-1.128 1.128-1.244 2.125-.004.54.092 1.248.54 1.856a4.955 4.955 0 01-.34-.203c-.98-.688-1.16-1.724-1.157-2.456zm10.02-9.86c-.725-.829-1-1.669-1.1-2.257h.912s-.18 1.545 1.145 3.062l.02.02a5.13 5.13 0 01-.977-.825zm4.397 2.352v3.273s-1.163-.049-2.028-.277c-1.205-.32-1.977-.811-1.977-.811s-.537-.353-.576-.377v6.762c0 .377-.1 1.317-.4 2.102-.392 1.024-1 1.7-1.113 1.836 0 0-.74.912-2.04 1.525-1.174.552-2.206.54-2.513.552 0 0-1.781.072-3.386-1.013a6.755 6.755 0 01-.968-.812l.008.008c1.604 1.088 3.386 1.013 3.386 1.013.308-.012 1.34 0 2.512-.552 1.301-.612 2.041-1.525 2.041-1.525.113-.136.72-.812 1.113-1.836.3-.785.4-1.725.4-2.102V6.423c.043.024.576.376.576.376s.772.492 1.977.812c.864.228 2.028.277 2.028.277V5.322c.4.092.742.116.96.092z" fill="#EE1D52"/><path d="M16.738 5.318v2.565s-1.165-.049-2.029-.277c-1.205-.32-1.977-.812-1.977-.812s-.537-.352-.576-.376v6.762c0 .377-.1 1.317-.4 2.102-.392 1.024-1 1.7-1.112 1.836 0 0-.74.913-2.042 1.525-1.173.552-2.205.54-2.512.552 0 0-1.781.072-3.386-1.013l-.007-.008a6.8 6.8 0 01-.477-.54 6.505 6.505 0 01-.904-1.64v-.004c-.128-.38-.392-1.301-.356-2.185.064-1.565.592-2.529.733-2.768A6.563 6.563 0 013.113 9.3a5.965 5.965 0 011.689-1 5.648 5.648 0 012.096-.44v2.597s-1.316-.437-2.373.335c-.736.573-1.128 1.128-1.244 2.125-.004.732.175 1.768 1.16 2.46.116.076.228.144.34.204.172.232.38.437.62.605.964.636 1.769.68 2.8.267.69-.276 1.206-.896 1.445-1.589.152-.433.149-.864.149-1.312V.804h2.4c.1.588.373 1.43 1.1 2.256.292.313.62.592.976.825.104.117.644.676 1.34 1.025.36.18.738.316 1.127.408z" fill="#000"/><path d="M.36 15.202l.06.172a1.652 1.652 0 01-.06-.172z" fill="#69C9D0"/><path d="M4.802 8.304a5.913 5.913 0 00-1.689 1 6.46 6.46 0 00-1.42 1.74c-.14.241-.668 1.201-.732 2.769-.036.888.231 1.804.356 2.184v.004c.079.217.391.989.904 1.64a6.8 6.8 0 00.476.54 6.756 6.756 0 01-1.437-1.344 6.38 6.38 0 01-.9-1.632v-.008c-.128-.38-.396-1.3-.356-2.188.064-1.565.593-2.53.732-2.769a6.46 6.46 0 011.42-1.74 5.966 5.966 0 011.69-1c.384-.16.784-.277 1.192-.352a5.951 5.951 0 011.864-.028v.744a5.622 5.622 0 00-2.1.44z" fill="#69C9D0"/><path d="M12.2.804H9.8v12.749c0 .448 0 .88-.149 1.312-.244.69-.76 1.313-1.444 1.59-1.032.416-1.842.368-2.802-.268a2.58 2.58 0 01-.62-.6c.821.436 1.552.427 2.461.063.69-.276 1.205-.9 1.445-1.589.152-.433.148-.864.148-1.312V0h3.318c-.005 0-.04.316.044.804zm4.538 3.806v.708a5.093 5.093 0 01-1.125-.409c-.693-.344-1.232-.907-1.34-1.024.124.08.248.152.38.22.849.422 1.677.548 2.085.505z" fill="#69C9D0"/></svg><svg fill="none" viewBox="0 0 19 22" id="twitch" xmlns="http://www.w3.org/2000/svg"><path d="M3.929 0L0 3.929V18.07h4.714V22l3.929-3.929h3.143L18.857 11V0H3.93z" fill="#9147FF"/><path d="M14.143 13.357l3.143-3.143V1.571H4.715v11.786h3.143V16.5L11 13.357h3.142z" fill="#fff"/><path d="M9.428 4.714h1.571V9.43H9.428V4.714zm5.5 0V9.43h-1.572V4.714h1.572z" fill="#9147FF"/></svg><svg fill="none" viewBox="0 0 19 16" id="twitter" xmlns="http://www.w3.org/2000/svg"><path d="M19 1.842a8.384 8.384 0 01-2.23.581c.776-.484 1.454-1.26 1.745-2.132-.775.485-1.55.775-2.52.97C15.316.484 14.25 0 13.184 0a3.889 3.889 0 00-3.878 3.878c0 .29 0 .581.097.872A11.427 11.427 0 011.357.679c-.29.581-.485 1.26-.485 1.938 0 1.357.679 2.52 1.745 3.2-.678 0-1.26-.195-1.745-.485 0 1.841 1.358 3.49 3.102 3.78-.29.097-.678.097-1.066.097-.29 0-.485 0-.775-.097a3.87 3.87 0 003.683 2.714C4.46 12.893 2.811 13.476.97 13.476c-.29 0-.581 0-.969-.097 1.745 1.066 3.78 1.745 6.01 1.745 7.174 0 11.051-5.914 11.051-11.052v-.484c.776-.291 1.454-.97 1.939-1.745z" fill="#1DA1F2"/></svg><svg fill="none" viewBox="0 0 22 14" id="vkvk" xmlns="http://www.w3.org/2000/svg"><path d="M21.455.909c.181-.512 0-.908-.702-.908h-2.401a1.065 1.065 0 00-1.023.701 20.44 20.44 0 01-2.963 4.952c-.26.383-.66.65-1.114.742-.165 0-.371-.19-.371-.701V.884c0-.602-.19-.883-.701-.883H8.384a.578.578 0 00-.603.561c0 .586.826.726.958 2.352v3.54c0 .767-.14.908-.446.908-.825 0-2.797-3.004-3.986-6.429A1.031 1.031 0 003.235.001H.825C.115.001 0 .331 0 .678c0 .627.825 3.795 3.796 7.987 1.98 2.889 4.802 4.407 7.336 4.407 1.534 0 1.724-.347 1.724-.933V9.97c0-.701.14-.825.627-.825.347 0 .982.19 2.402 1.56 1.65 1.65 1.906 2.376 2.822 2.376h2.401a.735.735 0 00.825-1.023 10.373 10.373 0 00-2.03-2.822c-.56-.652-1.394-1.378-1.65-1.725a.743.743 0 010-1.073s2.913-4.125 3.218-5.545" fill="#4680C2"/></svg><svg fill="none" viewBox="0 0 20 15" id="youtube" xmlns="http://www.w3.org/2000/svg"><path d="M19.584 2.198a2.522 2.522 0 00-.648-1.126 2.503 2.503 0 00-1.12-.652C16.254 0 10 0 10 0S3.744 0 2.186.42A2.522 2.522 0 00.418 2.197C0 3.766 0 7.038 0 7.038s0 3.272.418 4.84a2.522 2.522 0 001.768 1.777c1.56.414 7.814.414 7.814.414s6.256 0 7.814-.42a2.503 2.503 0 001.768-1.778C20 10.302 20 7.03 20 7.03s0-3.265-.416-4.832zM8 10.052v-6.03l5.197 3.015L8 10.052z" fill="red"/></svg></svg>