<svg width="34" height="34" fill="none" xmlns="http://www.w3.org/2000/svg"><path d="M29.845 4.422H4.156C2.39 4.422.961 5.867.961 7.633L.945 26.9a3.22 3.22 0 003.211 3.211h25.69a3.22 3.22 0 003.21-3.21V7.632a3.22 3.22 0 00-3.21-3.21zm-.642 6.824l-11.351 7.097a1.624 1.624 0 01-1.702 0L4.799 11.245a1.374 1.374 0 01-.643-1.156c0-1.076 1.172-1.718 2.088-1.156L17 15.661l10.757-6.727c.915-.562 2.087.08 2.087 1.156 0 .466-.24.9-.642 1.156z" fill="url(#paint0_linear)"/><defs><linearGradient id="paint0_linear" x1="-.29" y1="17.267" x2="33.056" y2="17.267" gradientUnits="userSpaceOnUse"><stop stop-color="#F12334"/><stop offset="1" stop-color="#FF8201"/></linearGradient></defs></svg>