<svg width="34" height="34" fill="none" xmlns="http://www.w3.org/2000/svg"><path d="M31.118 22.645l-4.747-4.46c-1.15-1.15-3.02-1.006-4.028.145l-1.007 1.15c-.144.144-.431.288-.719.144-.863-.431-2.302-1.15-3.884-2.589-1.582-1.438-2.445-2.733-2.877-3.596-.144-.288-.144-.576.144-.72l1.007-1.15c1.15-1.151 1.007-3.021-.144-4.028l-4.747-4.46c-1.15-1.15-3.02-1.006-4.028.144L3.211 6.39c-.431.432-1.007 1.151-1.15 2.158-.288 2.445.143 7.912 8.343 15.536 8.055 7.624 13.665 7.624 15.967 7.192.863-.144 1.582-.72 2.014-1.294l2.877-3.165c1.007-1.295 1.007-3.165-.144-4.172z" fill="url(#paint0_linear)"/><defs><linearGradient id="paint0_linear" x1=".846" y1="16.857" x2="32" y2="16.857" gradientUnits="userSpaceOnUse"><stop stop-color="#F12334"/><stop offset="1" stop-color="#FF8201"/></linearGradient></defs></svg>