<svg width="34" height="34" fill="none" xmlns="http://www.w3.org/2000/svg"><path d="M.596 17.236l7.817 2.915 3.047 9.804c.133.662.928.795 1.457.397l4.373-3.577c.397-.397 1.06-.397 1.59 0l7.816 5.697c.53.397 1.325.132 1.457-.53l5.83-27.822c.132-.663-.53-1.325-1.192-1.06L.596 15.514c-.795.265-.795 1.457 0 1.722zm10.467 1.457L26.43 9.287c.265-.133.53.265.265.397L14.11 21.476c-.398.397-.795.927-.795 1.59l-.397 3.18c0 .396-.663.529-.795 0l-1.59-5.83c-.398-.663-.133-1.458.53-1.723z" fill="url(#paint0_linear)"/><defs><linearGradient id="paint0_linear" x1="-1.308" y1="17.829" x2="34" y2="17.829" gradientUnits="userSpaceOnUse"><stop stop-color="#F12334"/><stop offset="1" stop-color="#FF8201"/></linearGradient></defs></svg>