<svg width="34" height="34" fill="none" xmlns="http://www.w3.org/2000/svg"><path d="M17.049 31.459c7.952 0 14.399-6.446 14.399-14.399 0-7.952-6.447-14.398-14.399-14.398C9.097 2.662 2.65 9.108 2.65 17.06c0 7.953 6.447 14.399 14.399 14.399z" fill="#fff"/><path fill-rule="evenodd" clip-rule="evenodd" d="M29.027 4.96C25.883 1.816 21.648 0 17.17 0 7.853 0 .23 7.623.23 16.819c0 3.024.726 5.928 2.3 8.47L.11 34l8.953-2.299a16.81 16.81 0 008.107 2.057c9.317 0 16.818-7.623 16.818-16.819 0-4.597-1.815-8.832-4.96-11.978zm-4.234 15.488c-.363-.242-2.541-1.21-2.904-1.33-.363-.122-.726-.243-.968.241-.242.363-1.09 1.331-1.331 1.694-.242.242-.484.363-.968.121-.363-.242-1.815-.605-3.388-2.057-1.21-1.088-2.057-2.54-2.299-2.904-.242-.363 0-.605.242-.847.484-.604.968-1.21 1.089-1.451a.771.771 0 000-.726c-.121-.242-.968-2.3-1.331-3.146-.363-1.09-.726-.968-.968-.968h-.847c-.242 0-.726.12-1.089.484-.363.484-1.452 1.452-1.452 3.509s1.452 4.114 1.694 4.356 3.025 4.476 7.139 6.412a9.7 9.7 0 002.42.847c.968.363 1.936.242 2.662.121.847-.12 2.54-.968 2.904-2.057.363-.968.363-1.815.242-2.057-.121 0-.363-.12-.847-.242z" fill="url(#paint0_linear)"/><defs><linearGradient id="paint0_linear" x1="-1.194" y1="17" x2="33.988" y2="17" gradientUnits="userSpaceOnUse"><stop stop-color="#F12334"/><stop offset="1" stop-color="#FF8201"/></linearGradient></defs></svg>