<svg version="1.1" id="Layer_1" xmlns="http://www.w3.org/2000/svg" xmlns:xlink="http://www.w3.org/1999/xlink" x="0" y="0" viewBox="0 0 465.1 427.7" xml:space="preserve" enable-background="new 0 0 465.1 427.7"><style>.st0{fill:#f7f8fa}.st3{fill:#4280a3}.st7{fill:#fdb64e}.st8{fill:#f8981d}.st9{fill:#fff}.st14{fill:#5f82d6}.st15{fill:#ffc190}.st16{fill:#2e3b57}</style><ellipse transform="rotate(-55.339 217.068 213.819)" class="st0" cx="217.1" cy="213.8" rx="210.8" ry="220"/><defs><filter id="Adobe_OpacityMaskFilter" filterUnits="userSpaceOnUse" x="0" y="0" width="434.2" height="427.7"><feColorMatrix values="-1 0 0 0 1 0 -1 0 0 1 0 0 -1 0 1 0 0 0 1 0" color-interpolation-filters="sRGB" result="source"/></filter></defs><mask maskUnits="userSpaceOnUse" x="0" y="0" width="434.2" height="427.7" id="SVGID_1_"><g filter="url(#Adobe_OpacityMaskFilter)"><image width="440" height="432" xlink:href="8DD6FDED16C9A37D.jpg" transform="translate(-3 -2.3)" overflow="visible"/></g></mask><g opacity=".2" mask="url(#SVGID_1_)"><ellipse transform="rotate(-55.339 217.068 213.819)" class="st3" cx="217.1" cy="213.8" rx="210.8" ry="220"/></g><ellipse transform="rotate(-55.339 223.683 204.3)" class="st0" cx="223.7" cy="204.3" rx="163.2" ry="179"/><defs><filter id="Adobe_OpacityMaskFilter_1_" filterUnits="userSpaceOnUse" x="49.6" y="35.8" width="348.1" height="337"><feColorMatrix values="-1 0 0 0 1 0 -1 0 0 1 0 0 -1 0 1 0 0 0 1 0" color-interpolation-filters="sRGB" result="source"/></filter></defs><mask maskUnits="userSpaceOnUse" x="49.6" y="35.8" width="348.1" height="337" id="SVGID_2_"><g filter="url(#Adobe_OpacityMaskFilter_1_)"><image width="353" height="342" xlink:href="8DD6FDED16C9A37F.jpg" transform="translate(47 33.7)" overflow="visible"/></g></mask><g opacity=".2" mask="url(#SVGID_2_)"><ellipse transform="rotate(-55.339 223.683 204.3)" class="st3" cx="223.7" cy="204.3" rx="163.2" ry="179"/></g><linearGradient id="SVGID_3_" gradientUnits="userSpaceOnUse" x1="154.851" y1="717.612" x2="297.18" y2="511.755" gradientTransform="translate(0 -413.723)"><stop offset="0" stop-color="#f12334"/><stop offset="1" stop-color="#ff8201"/></linearGradient><path d="M343 276.2c37.8-54.7 17.3-134.5-45.8-178.2s-145-34.7-182.9 20.1C76.5 172.8 97 252.6 160.1 296.3s145 34.6 182.9-20.1z" fill="url(#SVGID_3_)"/><path class="st7" d="M118.1 49.9c0-3.5 2.9-6.3 6.4-6.2 3.5 0 6.5 2.7 6.6 6.2.1 3.6-2.9 6.3-6.4 6.2-3.6 0-6.5-2.6-6.6-6.2zm6.4-11c-2.9 0-5.3-2.3-5.4-5.3l-.8-22.3c-.1-3.4 2.6-6.3 6.1-6.3 3.4 0 6.2 2.8 6.1 6.3l-.5 22.3c-.1 3-2.5 5.3-5.5 5.3zm236.5 39c-.3-3.8 2.6-7.2 6.5-7.3 4.9-.2 8.6-3 8.4-7.8-.2-4.5-3.3-7.3-7.9-7.1-2.1 0-3.8.6-5.1 1.7-2.8 2.2-5.5 5.5-9 5.6-4 .1-7.5-3.3-6.1-7 2.7-7.2 9.2-11.7 19.3-12 12.2-.4 21.4 7 21.8 18.6.3 8.5-5.1 14.6-14 16.8-1.3.3-2.4 1.5-2.5 2.8-.1 1.5-1.3 2.7-2.9 2.8l-2.6.1c-3.1.1-5.7-2.2-6-5.3l.1-1.9zm-1.6 19.9c-.2-4.2 3.3-7.5 7.4-7.6 4.2-.2 7.7 2.9 7.9 7.1.2 4.2-3.3 7.5-7.4 7.6-4.2.2-7.8-3-7.9-7.1z"/><path class="st8" d="M56 162.3h44.8c2.2 0 3.9 1.8 3.9 3.9v30.4c0 2.2-1.8 3.9-3.9 3.9H75.3l-5.6 7.5c-.4.5-1.1.5-1.5 0l-5.6-7.5H56c-2.2 0-3.9-1.8-3.9-3.9v-30.4c-.1-2.1 1.7-3.9 3.9-3.9z"/><path class="st7" d="M132.9 151.1H88.1c-2.2 0-3.9 1.8-3.9 3.9v30.4c0 2.2 1.8 3.9 3.9 3.9h25.5l5.6 7.5c.4.5 1.1.5 1.5 0l5.6-7.5h6.4c2.2 0 3.9-1.8 3.9-3.9V155c.3-2.2-1.5-3.9-3.7-3.9zm272.7 115.7l-70.5-.1c-1.7 0-3.1-1.4-3.1-3.2v-33.8c0-1.7 1.4-3.1 3.2-3.1l70.5.1c1.7 0 3.1 1.4 3.1 3.2v33.8c0 1.7-1.4 3.1-3.2 3.1z"/><path class="st8" d="M370.4 250.3l34.8-23.7h-69.6l34.8 23.7z"/><path class="st7" d="M42.2 106.3c15.4 1.3 28.9-10.1 30.2-25.4C73.6 65.6 62.3 52 46.9 50.7S18 60.8 16.7 76.2c-1.3 15.3 10.1 28.8 25.5 30.1z"/><circle class="st9" cx="59.3" cy="78.8" r="5.5"/><circle class="st9" cx="44.3" cy="78.8" r="5.5"/><circle class="st9" cx="29.3" cy="78.9" r="5.5"/><path class="st7" d="M442 177.1c19.3-8.2 28.3-30.5 20.1-49.8-8.2-19.3-30.5-28.3-49.8-20.1S384 137.7 392.2 157s30.5 28.3 49.8 20.1z"/><path class="st9" d="M434.8 125.1c0 3.9-3.1 6.9-6.9 7-3.9 0-6.9-3.1-7-6.9 0-3.9 3.1-6.9 6.9-7 3.9-.1 7 3 7 6.9zm-7.2 12c3.6 0 6.5 2.9 6.5 6.5v15c0 3.6-2.9 6.5-6.5 6.5s-6.5-2.9-6.5-6.5v-15c0-3.6 2.9-6.5 6.5-6.5z"/><path d="M258.5 98.6l-4.3-1.2 4.9-5.2 18.1 6.1-18.7.3z" fill="#f0c542"/><path d="M258.2 105.6l19-7.4-18.7-2.5-.3 9.9z" fill="#fad77e"/><path d="M277.2 98.3l-18.4-4.9 1.5-8.6 16.9 13.5z" fill="#fad784"/><path d="M254.2 97.4l4.3-1.5v2.8l-4.3-1.3z" fill="#dbab33"/><path class="st14" d="M284.2 131.4c0 9.5-7.7 17.5-17.5 17.5-9.5 0-17.5-7.7-17.5-17.5v-16.6c0-9.5 7.7-17.5 17.5-17.5 9.5 0 17.5 7.7 17.5 17.5v16.6z"/><path class="st15" d="M191.3 138.1c1.5 34 20.5 61 42.6 60.1 22.1-.6 38.6-28.8 37.4-62.9-1.5-34-20.5-61-42.6-60.1-22 .7-38.6 28.9-37.4 62.9z"/><path class="st16" d="M266.2 105.6s-21.2 3.4-58-10.4c0 0-28.2 27-9.5 69 0 0-27-24.5-13.8-67.2 13.2-42.6 40.8-34.7 55.8-39.9s31.9 4 42.9-5.8c10.8-9.8 14.5 28.6-17.4 54.3z"/><path class="st15" d="M184 137.8c.3 9.2 4.3 16.6 9.2 16.6 4.9-.3 8.6-8 8.3-17.5-.3-9.2-4.6-16.6-9.2-16.6-4.7.4-8.3 8-8.3 17.5z"/><linearGradient id="SVGID_4_" gradientUnits="userSpaceOnUse" x1="134.2" y1="678.291" x2="330.5" y2="678.291" gradientTransform="translate(0 -413.723)"><stop offset="0" stop-color="#45e0a0"/><stop offset="1" stop-color="#0ed9f1"/></linearGradient><path d="M330.5 291.1c-19.7-51-57.9-85.9-101.9-85.9-39 0-73.3 27.1-94.4 68.8 7.6 8.1 16.2 15.6 25.9 22.3 56.9 39.3 129 35.9 170.4-5.2z" fill-rule="evenodd" clip-rule="evenodd" fill="url(#SVGID_4_)"/><path class="st15" d="M245.6 221.6s-3.6 6.2-13.5 6.2-15-6.2-15-6.2v-32.2h28.5v32.2z"/><path class="st14" d="M202.4 133.5c0 9.5-7.7 17.5-17.5 17.5-9.5 0-17.5-7.7-17.5-17.5V117c0-9.5 7.7-17.5 17.5-17.5 9.5 0 17.5 7.7 17.5 17.5v16.5z"/><path class="st14" d="M236.4 56.6h-27.3c-16.9 0-30.4 13.5-30.4 30.4v18.7h8.6V90c0-13.5 11-24.2 24.2-24.2h21.8c13.5 0 24.2 11 24.2 24.2v15.6h8.6V86.9c.7-16.8-12.8-30.3-29.7-30.3z"/><path class="st16" d="M217.1 78.3s10.4-19.6 24.2-21.2c13.8-1.5 29.4 1.5 35.6-1.8 6.4-3.7 15.6-11 14.1 1.8-1.2 12.9 3.7 42-23.3 56.4 0 0-50.3-.9-59.8-18.4l9.2-16.8z"/><path class="st14" d="M257.6 171c0 3.4-2.8 6.1-6.1 6.1h-6.1c-3.4 0-6.1-2.8-6.1-6.1 0-3.4 2.8-6.1 6.1-6.1h6.1c3.3-.1 6.1 2.7 6.1 6.1z"/><path class="st14" d="M260 174.3c-4.3 0-8.6-.3-12.3-.6l.6-6.1c11 1.2 22.1.6 23.6-1.2 3.4-9.8 0-22.1 0-22.1l5.8-1.5c.3.6 4 14.1 0 25.8-1.4 4.2-9.4 5.7-17.7 5.7z"/></svg>