<svg width="466" height="428" fill="none" xmlns="http://www.w3.org/2000/svg"><g clip-path="url(#clip0)"><g filter="url(#filter0_i)"><path d="M398.01 338.925c66.209-95.757 38.868-229.399-61.068-298.497C237.007-28.671 102.319-7.06 36.11 88.697c-66.209 95.756-38.866 229.398 61.07 298.497 99.935 69.098 234.622 47.488 300.831-48.269z" fill="#F7F8FA"/></g><g filter="url(#filter1_i)"><path d="M370.902 306.09c51.258-74.135 26.895-179.808-54.416-236.03-81.312-56.22-188.781-41.7-240.04 32.435-51.258 74.134-26.895 179.808 54.416 236.029 81.312 56.222 188.781 41.7 240.04-32.434z" fill="#F7F8FA"/></g><path d="M343 276.2c37.8-54.7 17.3-134.5-45.8-178.2-63.1-43.7-145-34.7-182.9 20.1-37.8 54.7-17.3 134.5 45.8 178.2 63.1 43.7 145 34.6 182.9-20.1z" fill="url(#paint0_linear)"/><path d="M118.1 49.9c0-3.5 2.9-6.3 6.4-6.2 3.5 0 6.5 2.7 6.6 6.2.1 3.6-2.9 6.3-6.4 6.2-3.6 0-6.5-2.6-6.6-6.2zm6.4-11c-2.9 0-5.3-2.3-5.4-5.3l-.8-22.3c-.1-3.4 2.6-6.3 6.1-6.3 3.4 0 6.2 2.8 6.1 6.3l-.5 22.3c-.1 3-2.5 5.3-5.5 5.3zm236.501 39c-.3-3.8 2.6-7.2 6.5-7.3 4.9-.2 8.6-3 8.4-7.8-.2-4.5-3.3-7.3-7.9-7.1-2.1 0-3.8.6-5.1 1.7-2.8 2.2-5.5 5.5-9 5.6-4 .1-7.5-3.3-6.1-7 2.7-7.2 9.2-11.7 19.3-12 12.2-.4 21.4 7 21.8 18.6.3 8.5-5.1 14.6-14 16.8-1.3.3-2.4 1.5-2.5 2.8-.1 1.5-1.3 2.7-2.9 2.8l-2.6.1c-3.1.1-5.7-2.2-6-5.3l.1-1.9zm-1.6 19.9c-.2-4.2 3.3-7.5 7.4-7.6 4.2-.2 7.7 2.9 7.9 7.1.2 4.2-3.3 7.5-7.4 7.6-4.2.2-7.8-3-7.9-7.1z" fill="#FDB64E"/><path d="M56 162.3h44.8c2.2 0 3.9 1.8 3.9 3.9v30.4c0 2.2-1.8 3.9-3.9 3.9H75.3l-5.6 7.5c-.4.5-1.1.5-1.5 0l-5.6-7.5H56c-2.2 0-3.9-1.8-3.9-3.9v-30.4c-.1-2.1 1.7-3.9 3.9-3.9z" fill="#F8981D"/><path d="M132.899 151.1h-44.8c-2.2 0-3.9 1.8-3.9 3.9v30.4c0 2.2 1.8 3.9 3.9 3.9h25.5l5.6 7.5c.4.5 1.1.5 1.5 0l5.6-7.5h6.4c2.2 0 3.9-1.8 3.9-3.9V155c.3-2.2-1.5-3.9-3.7-3.9zM405.6 266.8l-70.5-.1c-1.7 0-3.1-1.4-3.1-3.2v-33.8c0-1.7 1.4-3.1 3.2-3.1l70.5.1c1.7 0 3.1 1.4 3.1 3.2v33.8c0 1.7-1.4 3.1-3.2 3.1z" fill="#FDB64E"/><path d="M370.4 250.3l34.8-23.7h-69.6l34.8 23.7z" fill="#F8981D"/><path d="M42.2 106.3c15.4 1.3 28.9-10.1 30.2-25.4C73.6 65.6 62.3 52 46.9 50.7 31.5 49.4 18 60.8 16.7 76.2c-1.3 15.3 10.1 28.8 25.5 30.1z" fill="#FDB64E"/><path d="M59.3 84.3a5.5 5.5 0 100-11 5.5 5.5 0 000 11zm-15 0a5.5 5.5 0 100-11 5.5 5.5 0 000 11zm-15 .1a5.5 5.5 0 100-11 5.5 5.5 0 000 11z" fill="#fff"/><path d="M442.001 177.1c19.3-8.2 28.3-30.5 20.1-49.8-8.2-19.3-30.5-28.3-49.8-20.1-19.3 8.2-28.3 30.5-20.1 49.8 8.2 19.3 30.5 28.3 49.8 20.1z" fill="#FDB64E"/><path d="M434.8 125.1c0 3.9-3.1 6.9-6.9 7-3.9 0-6.9-3.1-7-6.9 0-3.9 3.1-6.9 6.9-7 3.9-.1 7 3 7 6.9zm-7.2 12c3.6 0 6.5 2.9 6.5 6.5v15c0 3.6-2.9 6.5-6.5 6.5s-6.5-2.9-6.5-6.5v-15c0-3.6 2.9-6.5 6.5-6.5z" fill="#fff"/><path d="M258.499 98.6l-4.3-1.2 4.9-5.2 18.1 6.1-18.7.3z" fill="#F0C542"/><path d="M258.199 105.6l19-7.4-18.7-2.5-.3 9.9z" fill="#FAD77E"/><path d="M277.201 98.3l-18.4-4.9 1.5-8.6 16.9 13.5z" fill="#FAD784"/><path d="M254.199 97.4l4.3-1.5v2.8l-4.3-1.3z" fill="#DBAB33"/><path d="M284.199 131.4c0 9.5-7.7 17.5-17.5 17.5-9.5 0-17.5-7.7-17.5-17.5v-16.6c0-9.5 7.7-17.5 17.5-17.5 9.5 0 17.5 7.7 17.5 17.5v16.6z" fill="#5F82D6"/><path d="M191.299 138.1c1.5 34 20.5 61 42.6 60.1 22.1-.6 38.6-28.8 37.4-62.9-1.5-34-20.5-61-42.6-60.1-22 .7-38.6 28.9-37.4 62.9z" fill="#FFC190"/><path d="M266.2 105.6s-21.2 3.4-58-10.4c0 0-28.2 27-9.5 69 0 0-27-24.5-13.8-67.2 13.2-42.6 40.8-34.7 55.8-39.9 15-5.2 31.9 4 42.9-5.8 10.8-9.8 14.5 28.6-17.4 54.3z" fill="#2E3B57"/><path d="M184 137.8c.3 9.2 4.3 16.6 9.2 16.6 4.9-.3 8.6-8 8.3-17.5-.3-9.2-4.6-16.6-9.2-16.6-4.7.4-8.3 8-8.3 17.5z" fill="#FFC190"/><path fill-rule="evenodd" clip-rule="evenodd" d="M330.499 291.1c-19.7-51-57.9-85.9-101.9-85.9-39 0-73.3 27.1-94.4 68.8 7.6 8.1 16.2 15.6 25.9 22.3 56.9 39.3 129 35.9 170.4-5.2z" fill="url(#paint1_linear)"/><path d="M245.6 221.6s-3.6 6.2-13.5 6.2-15-6.2-15-6.2v-32.2h28.5v32.2z" fill="#FFC190"/><path d="M202.4 133.5c0 9.5-7.7 17.5-17.5 17.5-9.5 0-17.5-7.7-17.5-17.5V117c0-9.5 7.7-17.5 17.5-17.5 9.5 0 17.5 7.7 17.5 17.5v16.5z" fill="#5F82D6"/><path d="M236.399 56.6h-27.3c-16.9 0-30.4 13.5-30.4 30.4v18.7h8.6V90c0-13.5 11-24.2 24.2-24.2h21.8c13.5 0 24.2 11 24.2 24.2v15.6h8.6V86.9c.7-16.8-12.8-30.3-29.7-30.3z" fill="#5F82D6"/><path d="M217.1 78.3s10.4-19.6 24.2-21.2c13.8-1.5 29.4 1.5 35.6-1.8 6.4-3.7 15.6-11 14.1 1.8-1.2 12.9 3.7 42-23.3 56.4 0 0-50.3-.9-59.8-18.4l9.2-16.8z" fill="#2E3B57"/><path d="M257.601 171c0 3.4-2.8 6.1-6.1 6.1h-6.1c-3.4 0-6.1-2.8-6.1-6.1 0-3.4 2.8-6.1 6.1-6.1h6.1c3.3-.1 6.1 2.7 6.1 6.1z" fill="#5F82D6"/><path d="M259.999 174.3c-4.3 0-8.6-.3-12.3-.6l.6-6.1c11 1.2 22.1.6 23.6-1.2 3.4-9.8 0-22.1 0-22.1l5.8-1.5c.3.6 4 14.1 0 25.8-1.4 4.2-9.4 5.7-17.7 5.7z" fill="#5F82D6"/></g><defs><linearGradient id="paint0_linear" x1="154.832" y1="303.876" x2="297.161" y2="98.019" gradientUnits="userSpaceOnUse"><stop stop-color="#F12334"/><stop offset="1" stop-color="#FF8201"/></linearGradient><linearGradient id="paint1_linear" x1="134.246" y1="264.529" x2="330.518" y2="264.529" gradientUnits="userSpaceOnUse"><stop stop-color="#45E0A0"/><stop offset="1" stop-color="#0ED9F1"/></linearGradient><filter id="filter0_i" x="-.021" y="-.016" width="434.165" height="427.654" filterUnits="userSpaceOnUse" color-interpolation-filters="sRGB"><feFlood flood-opacity="0" result="BackgroundImageFix"/><feBlend in="SourceGraphic" in2="BackgroundImageFix" result="shape"/><feColorMatrix in="SourceAlpha" values="0 0 0 0 0 0 0 0 0 0 0 0 0 0 0 0 0 0 127 0" result="hardAlpha"/><feOffset/><feGaussianBlur stdDeviation="15"/><feComposite in2="hardAlpha" operator="arithmetic" k2="-1" k3="1"/><feColorMatrix values="0 0 0 0 0.260313 0 0 0 0 0.501712 0 0 0 0 0.6375 0 0 0 0.2 0"/><feBlend in2="shape" result="effect1_innerShadow"/></filter><filter id="filter1_i" x="-16.365" y="-31.737" width="480.079" height="472.059" filterUnits="userSpaceOnUse" color-interpolation-filters="sRGB"><feFlood flood-opacity="0" result="BackgroundImageFix"/><feBlend in="SourceGraphic" in2="BackgroundImageFix" result="shape"/><feColorMatrix in="SourceAlpha" values="0 0 0 0 0 0 0 0 0 0 0 0 0 0 0 0 0 0 127 0" result="hardAlpha"/><feOffset/><feGaussianBlur stdDeviation="15"/><feComposite in2="hardAlpha" operator="arithmetic" k2="-1" k3="1"/><feColorMatrix values="0 0 0 0 0.260313 0 0 0 0 0.501712 0 0 0 0 0.6375 0 0 0 0.2 0"/><feBlend in2="shape" result="effect1_innerShadow"/></filter><clipPath id="clip0"><path fill="#fff" d="M0 0h465.1v427.7H0z"/></clipPath></defs></svg>