<svg width="18" height="19" fill="none" xmlns="http://www.w3.org/2000/svg"><path d="M9 1.623c2.403 0 2.688.009 3.637.052.877.04 1.354.187 1.671.31.391.144.745.374 1.036.673.3.29.53.645.673 1.036.123.317.27.794.31 1.671.043.95.052 1.234.052 3.637s-.009 2.688-.052 3.637c-.04.877-.187 1.354-.31 1.671a2.98 2.98 0 01-1.708 1.708c-.317.123-.794.27-1.671.31-.949.043-1.234.053-3.637.053s-2.688-.01-3.637-.053c-.877-.04-1.354-.186-1.671-.31a2.789 2.789 0 01-1.036-.673 2.789 2.789 0 01-.673-1.036c-.123-.317-.27-.794-.31-1.671-.043-.949-.052-1.234-.052-3.637s.009-2.688.052-3.637c.04-.877.187-1.354.31-1.671.144-.391.374-.745.673-1.036.29-.3.645-.53 1.036-.673.317-.123.794-.27 1.671-.31.95-.043 1.234-.052 3.637-.052H9zM9.001 0c-2.444 0-2.75.01-3.71.054s-1.614.197-2.186.42A4.413 4.413 0 001.51 1.512 4.42 4.42 0 00.473 3.106C.25 3.678.098 4.332.054 5.29.011 6.248 0 6.557 0 9.001s.01 2.75.054 3.71.196 1.613.419 2.185c.226.601.58 1.145 1.038 1.595.45.457.993.812 1.594 1.038.571.222 1.226.375 2.184.418.958.044 1.267.054 3.711.054s2.75-.01 3.71-.054 1.613-.196 2.185-.418a4.603 4.603 0 002.633-2.633c.222-.571.374-1.226.418-2.184.044-.958.054-1.267.054-3.71 0-2.445-.01-2.752-.054-3.712-.044-.96-.196-1.612-.418-2.184a4.411 4.411 0 00-1.038-1.594A4.41 4.41 0 0014.894.473C14.323.251 13.67.1 12.711.055 11.753.012 11.444.001 9 .001L9.001 0z" fill="url(#paint0_radial)"/><path d="M9 4.38a4.621 4.621 0 100 9.243A4.621 4.621 0 009 4.38zm0 7.622a3 3 0 110-6 3 3 0 010 6z" fill="url(#paint1_radial)"/><path d="M13.805 5.277a1.08 1.08 0 100-2.16 1.08 1.08 0 000 2.16z" fill="url(#paint2_radial)"/><defs><radialGradient id="paint0_radial" cx="0" cy="0" r="1" gradientUnits="userSpaceOnUse" gradientTransform="matrix(37.5181 0 0 37.5203 -1.966 24.305)"><stop stop-color="#F9ED41"/><stop offset=".241" stop-color="#FF833D"/><stop offset=".401" stop-color="#EE5568"/><stop offset=".489" stop-color="#E7407B"/><stop offset="1" stop-color="#0028FF"/></radialGradient><radialGradient id="paint1_radial" cx="0" cy="0" r="1" gradientUnits="userSpaceOnUse" gradientTransform="translate(3.37 16.86) scale(19.265)"><stop stop-color="#F9ED41"/><stop offset=".241" stop-color="#FF833D"/><stop offset=".401" stop-color="#EE5568"/><stop offset=".489" stop-color="#E7407B"/><stop offset="1" stop-color="#0028FF"/></radialGradient><radialGradient id="paint2_radial" cx="0" cy="0" r="1" gradientUnits="userSpaceOnUse" gradientTransform="translate(12.489 6.033) scale(4.50202)"><stop stop-color="#F9ED41"/><stop offset=".241" stop-color="#FF833D"/><stop offset=".401" stop-color="#EE5568"/><stop offset=".489" stop-color="#E7407B"/><stop offset="1" stop-color="#0028FF"/></radialGradient></defs></svg>