<svg width="16" height="20" fill="none" xmlns="http://www.w3.org/2000/svg"><path d="M13.746 17.75c.927-.278 1.582-.951 1.854-1.909l.08-.278.013-7.525c.006-5.635 0-7.562-.031-7.667a.668.668 0 00-.149-.278.65.65 0 00-.352-.093 5.98 5.98 0 00-.71.099c-1.322.247-9.12 1.835-9.255 1.884-.204.08-.408.266-.507.457l-.08.167s-.037 11.8-.1 11.93c-.092.204-.29.396-.475.458-.086.03-.439.11-.772.179-1.563.321-2.144.55-2.638 1.044a2.183 2.183 0 00-.575 1.063c-.086.383-.055.957.068 1.31.13.364.334.679.6.92.24.192.53.334.858.42.717.185 2.058-.018 2.743-.426a3.04 3.04 0 00.847-.816c.074-.117.191-.352.253-.519.222-.593.229-11.164.26-11.294a.56.56 0 01.407-.444c.186-.05 7.698-1.57 7.908-1.6.186-.025.365.036.458.154.055.03.105.074.136.123.061.093.061.278.074 3.62.012 3.85.012 3.763-.192 4.004-.148.18-.333.247-1.1.402-1.161.24-1.556.358-2.001.58-.556.279-.865.582-1.1 1.088-.167.358-.235.624-.229.982 0 .637.217 1.131.699 1.62.043.042.086.086.13.123.24.191.493.309.802.383.458.111 1.415.037 2.076-.16z" fill="url(#paint0_linear)"/><defs><linearGradient id="paint0_linear" x1="-.408" y1="-1.224" x2="17.587" y2="22.132" gradientUnits="userSpaceOnUse"><stop stop-color="#FF5E50"/><stop offset=".249" stop-color="#FE5C6C"/><stop offset=".377" stop-color="#E3658A"/><stop offset=".497" stop-color="#B87EB0"/><stop offset=".627" stop-color="#916CFF"/><stop offset=".763" stop-color="#70BCFB" stop-opacity=".918"/><stop offset="1" stop-color="#21C7FE"/></linearGradient></defs></svg>