<svg width="18" height="20" fill="none" xmlns="http://www.w3.org/2000/svg"><path d="M3.281 12.922c.117-.997.509-1.552 1.245-2.125 1.056-.772 2.373-.335 2.373-.335V7.864c.32-.008.64.011.956.06v3.34s-1.316-.436-2.373.336c-.736.572-1.128 1.128-1.244 2.125-.004.54.092 1.248.54 1.856a4.955 4.955 0 01-.34-.203c-.98-.688-1.16-1.724-1.157-2.456zm10.02-9.86c-.725-.829-1-1.669-1.1-2.257h.912s-.18 1.545 1.145 3.062l.02.02a5.13 5.13 0 01-.977-.825zm4.397 2.352v3.273s-1.163-.049-2.028-.277c-1.205-.32-1.977-.811-1.977-.811s-.537-.353-.576-.377v6.762c0 .377-.1 1.317-.4 2.102-.392 1.024-1 1.7-1.113 1.836 0 0-.74.912-2.04 1.525-1.174.552-2.206.54-2.513.552 0 0-1.781.072-3.386-1.013a6.755 6.755 0 01-.968-.812l.008.008c1.604 1.088 3.386 1.013 3.386 1.013.308-.012 1.34 0 2.512-.552 1.301-.612 2.041-1.525 2.041-1.525.113-.136.72-.812 1.113-1.836.3-.785.4-1.725.4-2.102V6.423c.043.024.576.376.576.376s.772.492 1.977.812c.864.228 2.028.277 2.028.277V5.322c.4.092.742.116.96.092z" fill="#EE1D52"/><path d="M16.738 5.318v2.565s-1.165-.049-2.029-.277c-1.205-.32-1.977-.812-1.977-.812s-.537-.352-.576-.376v6.762c0 .377-.1 1.317-.4 2.102-.392 1.024-1 1.7-1.112 1.836 0 0-.74.913-2.042 1.525-1.173.552-2.205.54-2.512.552 0 0-1.781.072-3.386-1.013l-.007-.008a6.8 6.8 0 01-.477-.54 6.505 6.505 0 01-.904-1.64v-.004c-.128-.38-.392-1.301-.356-2.185.064-1.565.592-2.529.733-2.768A6.563 6.563 0 013.113 9.3a5.965 5.965 0 011.689-1 5.648 5.648 0 012.096-.44v2.597s-1.316-.437-2.373.335c-.736.573-1.128 1.128-1.244 2.125-.004.732.175 1.768 1.16 2.46.116.076.228.144.34.204.172.232.38.437.62.605.964.636 1.769.68 2.8.267.69-.276 1.206-.896 1.445-1.589.152-.433.149-.864.149-1.312V.804h2.4c.1.588.373 1.43 1.1 2.256.292.313.62.592.976.825.104.117.644.676 1.34 1.025.36.18.738.316 1.127.408z" fill="#000"/><path d="M.36 15.202l.06.172a1.652 1.652 0 01-.06-.172z" fill="#69C9D0"/><path d="M4.802 8.304a5.913 5.913 0 00-1.689 1 6.46 6.46 0 00-1.42 1.74c-.14.241-.668 1.201-.732 2.769-.036.888.231 1.804.356 2.184v.004c.079.217.391.989.904 1.64a6.8 6.8 0 00.476.54 6.756 6.756 0 01-1.437-1.344 6.38 6.38 0 01-.9-1.632v-.008c-.128-.38-.396-1.3-.356-2.188.064-1.565.593-2.53.732-2.769a6.46 6.46 0 011.42-1.74 5.966 5.966 0 011.69-1c.384-.16.784-.277 1.192-.352a5.951 5.951 0 011.864-.028v.744a5.622 5.622 0 00-2.1.44z" fill="#69C9D0"/><path d="M12.2.804H9.8v12.749c0 .448 0 .88-.149 1.312-.244.69-.76 1.313-1.444 1.59-1.032.416-1.842.368-2.802-.268a2.58 2.58 0 01-.62-.6c.821.436 1.552.427 2.461.063.69-.276 1.205-.9 1.445-1.589.152-.433.148-.864.148-1.312V0h3.318c-.005 0-.04.316.044.804zm4.538 3.806v.708a5.093 5.093 0 01-1.125-.409c-.693-.344-1.232-.907-1.34-1.024.124.08.248.152.38.22.849.422 1.677.548 2.085.505z" fill="#69C9D0"/></svg>