<svg width="19" height="16" fill="none" xmlns="http://www.w3.org/2000/svg"><path d="M19 1.842a8.384 8.384 0 01-2.23.581c.776-.484 1.454-1.26 1.745-2.132-.775.485-1.55.775-2.52.97C15.316.484 14.25 0 13.184 0a3.889 3.889 0 00-3.878 3.878c0 .29 0 .581.097.872A11.427 11.427 0 011.357.679c-.29.581-.485 1.26-.485 1.938a3.75 3.75 0 001.745 3.2c-.678 0-1.26-.195-1.745-.485 0 1.841 1.358 3.49 3.102 3.78-.29.097-.678.097-1.066.097-.29 0-.485 0-.775-.097a3.87 3.87 0 003.683 2.714c-1.356 1.067-3.005 1.65-4.846 1.65-.29 0-.581 0-.969-.097 1.745 1.066 3.78 1.745 6.01 1.745 7.174 0 11.051-5.914 11.051-11.052v-.484c.776-.291 1.454-.97 1.939-1.745z" fill="#1DA1F2"/></svg>