<svg width="22" height="14" fill="none" xmlns="http://www.w3.org/2000/svg"><path d="M21.455.909c.181-.512 0-.908-.702-.908h-2.401a1.065 1.065 0 00-1.023.701 20.44 20.44 0 01-2.963 4.952c-.26.383-.66.65-1.114.742-.165 0-.371-.19-.371-.701V.884c0-.602-.19-.883-.701-.883H8.384a.578.578 0 00-.603.561c0 .586.826.726.958 2.352v3.54c0 .767-.14.908-.446.908-.825 0-2.797-3.004-3.986-6.429A1.031 1.031 0 003.235.001H.825C.115.001 0 .331 0 .678c0 .627.825 3.795 3.796 7.987 1.98 2.889 4.802 4.407 7.336 4.407 1.534 0 1.724-.347 1.724-.933V9.97c0-.701.14-.825.627-.825.347 0 .982.19 2.402 1.56 1.65 1.65 1.906 2.376 2.822 2.376h2.401a.735.735 0 00.825-1.023 10.373 10.373 0 00-2.03-2.822c-.56-.652-1.394-1.378-1.65-1.725a.743.743 0 010-1.073s2.913-4.125 3.218-5.545" fill="#4680C2"/></svg>