<svg width="237" height="26" fill="none" xmlns="http://www.w3.org/2000/svg"><path d="M45.437 16.347c0-.346-.167-.644-.49-.907-.333-.262-.751-.477-1.276-.644a124.05 124.05 0 00-1.73-.537c-.633-.19-1.265-.43-1.897-.728a8.811 8.811 0 01-1.719-1.05c-.525-.405-.942-.966-1.276-1.658-.334-.693-.49-1.492-.49-2.399 0-1.563.68-2.935 2.04-4.116 1.361-1.182 3.091-1.766 5.215-1.766.871 0 1.694.095 2.47.286.776.191 1.408.418 1.897.692.49.263.931.537 1.3.8.37.262.633.5.776.704l.251.262-3.019 3.15a3.87 3.87 0 00-.393-.405c-.18-.168-.537-.394-1.086-.669-.55-.286-1.098-.43-1.659-.43-.585 0-1.074.168-1.468.49-.393.334-.584.716-.584 1.145 0 .346.167.645.489.895.334.25.752.466 1.277.645.525.179 1.098.358 1.718.549a14.4 14.4 0 011.897.727 8.913 8.913 0 011.73 1.05c.525.406.943.967 1.277 1.659.334.692.49 1.492.49 2.398 0 1.766-.705 3.258-2.1 4.475-1.397 1.205-3.246 1.814-5.561 1.814-.943 0-1.85-.12-2.733-.346-.87-.227-1.599-.502-2.16-.824a16.488 16.488 0 01-1.503-.966 7.1 7.1 0 01-.966-.824l-.299-.334 3.007-3.138c.036.048.096.12.191.215.096.083.275.25.55.49.274.238.56.453.858.632.299.178.68.346 1.134.489a4.5 4.5 0 001.36.215c.728 0 1.325-.203 1.778-.597.477-.406.704-.883.704-1.444zm18.792 1.229l-5.322-6.694v11.336h-5.19V3.09h4.641l5.871 7.53 5.883-7.53h4.641v19.128h-5.19V10.882l-5.334 6.694zm24.939 0l-5.321-6.694v11.336h-5.19V3.09h4.64l5.871 7.53 5.883-7.53h4.641v19.128h-5.19V10.882l-5.334 6.694z" fill="#333646"/><path d="M112.746 22.218h-9.152V3.09h8.603c1.969 0 3.544.502 4.749 1.504 1.205 1.002 1.802 2.183 1.802 3.544a4.52 4.52 0 01-.251 1.503c-.167.477-.37.86-.609 1.146a6.003 6.003 0 01-.716.74c-.238.214-.441.357-.62.44l-.251.132c.084.036.215.084.37.155.155.072.43.227.824.466.393.25.739.525 1.038.835.298.31.572.74.823 1.277a4.34 4.34 0 01.37 1.777c0 1.492-.656 2.804-1.957 3.926-1.312 1.122-2.983 1.683-5.023 1.683zm-1.098-15.023h-2.864v3.27h2.864c.537 0 .978-.144 1.289-.442.322-.298.477-.692.477-1.193 0-.49-.155-.895-.477-1.193-.311-.299-.74-.442-1.289-.442zm-2.864 10.93h3.544c.609 0 1.098-.18 1.48-.549a1.83 1.83 0 00.572-1.372 1.83 1.83 0 00-.572-1.372c-.382-.37-.871-.55-1.48-.55h-3.544v3.843z" fill="url(#paint0_linear)"/><path d="M139.64 5.525c2.064 1.992 3.102 4.367 3.102 7.135s-1.038 5.143-3.102 7.135c-2.064 1.993-4.582 2.983-7.553 2.983s-5.489-.99-7.553-2.983c-2.064-1.992-3.102-4.367-3.102-7.135s1.038-5.143 3.102-7.135c2.064-1.993 4.582-2.984 7.553-2.984 2.959 0 5.477.99 7.553 2.984zm-11.347 3.221c-1.027 1.038-1.54 2.339-1.54 3.902 0 1.563.513 2.864 1.54 3.914 1.026 1.05 2.291 1.563 3.806 1.563 1.515 0 2.78-.525 3.794-1.563 1.015-1.038 1.528-2.339 1.528-3.914 0-1.563-.513-2.864-1.528-3.902-1.014-1.038-2.279-1.551-3.794-1.551-1.515 0-2.792.513-3.806 1.551z" fill="url(#paint1_linear)"/><path d="M162.667 5.525c2.065 1.992 3.103 4.367 3.103 7.135s-1.038 5.143-3.103 7.135c-2.064 1.993-4.582 2.983-7.553 2.983s-5.488-.99-7.553-2.983c-2.064-1.992-3.102-4.367-3.102-7.135s1.038-5.143 3.102-7.135c2.065-1.993 4.582-2.984 7.553-2.984s5.489.99 7.553 2.984zM151.32 8.746c-1.026 1.038-1.539 2.339-1.539 3.902 0 1.563.513 2.864 1.539 3.914 1.026 1.05 2.291 1.563 3.806 1.563 1.516 0 2.78-.525 3.795-1.563 1.014-1.038 1.527-2.339 1.527-3.914 0-1.563-.513-2.864-1.527-3.902-1.015-1.038-2.279-1.551-3.795-1.551-1.515 0-2.78.513-3.806 1.551z" fill="url(#paint2_linear)"/><path d="M179.098 17.576l-5.322-6.694v11.336h-5.19V3.09h4.642l5.87 7.53 5.883-7.53h4.641v19.128h-5.19V10.882l-5.334 6.694z" fill="url(#paint3_linear)"/><path d="M193.168 21.776a2.332 2.332 0 01-.74-1.742c0-.692.25-1.277.74-1.742.489-.477 1.109-.704 1.849-.704s1.36.238 1.849.704c.49.477.74 1.05.74 1.742s-.25 1.277-.74 1.742c-.489.477-1.109.704-1.849.704-.728 0-1.348-.227-1.849-.704zm7.254.442V3.09h9.021c2.016 0 3.687.633 4.999 1.886 1.313 1.253 1.969 2.816 1.969 4.677 0 .764-.108 1.48-.346 2.136-.227.668-.501 1.205-.823 1.61a7.702 7.702 0 01-.967 1.05c-.322.287-.585.49-.799.597l-.358.203 3.961 6.969h-5.453l-3.281-6.014h-2.733v6.014h-5.19zm10.226-11.205a1.83 1.83 0 00.572-1.372c0-.549-.191-1.002-.572-1.36-.382-.358-.871-.537-1.48-.537h-3.544v3.818h3.544c.597 0 1.098-.19 1.48-.549zm15.082 6.002c.704.74 1.528 1.11 2.506 1.11.978 0 1.802-.37 2.506-1.11.704-.74 1.05-1.646 1.05-2.72V3.09h5.19v11.205c0 2.398-.823 4.414-2.482 6.037-1.658 1.623-3.734 2.434-6.252 2.434s-4.606-.81-6.252-2.434c-1.659-1.623-2.482-3.639-2.482-6.037V3.09h5.19v11.205c-.024 1.074.334 1.98 1.026 2.72z" fill="#333646"/><path d="M28.709 23.852c-1.36 2.053-4.355 2.757-6.706 1.575l-7.386-3.723a608.541 608.541 0 017.374-3.71c2.184-1.098 4.952-.585 6.432 1.169 1.121 1.42 1.3 3.162.286 4.69z" fill="url(#paint4_linear)"/><path d="M5.572 12.17L13.185.645C13.53.251 14.068 0 14.688 0c.609 0 1.157.25 1.504.644l5.178 7.828c-6.491.12-19.342 9.056-15.798 3.699z" fill="url(#paint5_linear)"/><path d="M11.348 3.425L13.175.656C13.532.251 14.07 0 14.69 0c.608 0 1.157.25 1.503.644l5.178 7.828C18.413 4.022 5.574 12.17 11.35 3.425z" fill="url(#paint6_linear)"/><path d="M7.852 25.14c-5.37 2.71-9.474-2.135-7.195-5.583a261.94 261.94 0 011.992-2.995c2.375 3.448 17.994-9.164 21.156-4.391l4.618 6.992c-1.48-1.766-4.248-2.28-6.432-1.17-4.725 2.34-9.438 4.773-14.14 7.148z" fill="url(#paint7_linear)"/><path d="M2.53 22.074c-1.587-.047-2.602-.716-2.267-1.778-1.313 3.353 2.589 7.363 7.588 4.845 4.714-2.387 9.403-4.82 14.14-7.147 2.183-1.098 4.952-.585 6.42 1.169l-2.316-3.496C21.98 9.427 8.234 22.265 2.53 22.074z" fill="url(#paint8_linear)"/><path d="M22.982 21.657c1.325.668 3.007.274 3.77-.883.574-.86.466-1.838-.166-2.637a2.655 2.655 0 00-.585-.513c-1.289-.37-2.744-.275-3.997.358-.454.226-.919.453-1.372.68l-1.79.895 4.14 2.1z" fill="url(#paint9_linear)"/><defs><linearGradient id="paint0_linear" x1="119.678" y1="16.466" x2="103.57" y2="16.466" gradientUnits="userSpaceOnUse"><stop stop-color="#FF8F00"/><stop offset="1" stop-color="#FF8000"/></linearGradient><linearGradient id="paint1_linear" x1="121.468" y1="12.648" x2="142.707" y2="12.648" gradientUnits="userSpaceOnUse"><stop stop-color="#FF7F00"/><stop offset="1" stop-color="#FF5C06"/></linearGradient><linearGradient id="paint2_linear" x1="144.495" y1="12.648" x2="165.734" y2="12.648" gradientUnits="userSpaceOnUse"><stop stop-color="#FF5809"/><stop offset="1" stop-color="#FF3417"/></linearGradient><linearGradient id="paint3_linear" x1="168.598" y1="11.335" x2="189.598" y2="11.335" gradientUnits="userSpaceOnUse"><stop stop-color="#FF2E1A"/><stop offset="1" stop-color="#FD1525"/></linearGradient><linearGradient id="paint4_linear" x1="29.37" y1="21.709" x2="14.611" y2="21.709" gradientUnits="userSpaceOnUse"><stop stop-color="#F50C37"/><stop offset="1" stop-color="#FED906"/></linearGradient><linearGradient id="paint5_linear" x1="7.636" y1="10.083" x2="19.926" y2="5.668" gradientUnits="userSpaceOnUse"><stop stop-color="#003599"/><stop offset="1" stop-color="#5BCFF6"/></linearGradient><linearGradient id="paint6_linear" x1="9.977" y1="3.059" x2="21.041" y2="5.984" gradientUnits="userSpaceOnUse"><stop offset=".001" stop-color="#2878C2"/><stop offset="1" stop-color="#51BDEB"/></linearGradient><linearGradient id="paint7_linear" x1="-1.73" y1="21.836" x2="25.117" y2="11.992" gradientUnits="userSpaceOnUse"><stop stop-color="#F82B2F"/><stop offset="1" stop-color="#FFF900"/></linearGradient><linearGradient id="paint8_linear" x1="1.79" y1="25.893" x2="26.445" y2="14.566" gradientUnits="userSpaceOnUse"><stop stop-color="#F6013A"/><stop offset="1" stop-color="#FFFC01"/></linearGradient><linearGradient id="paint9_linear" x1="18.836" y1="19.695" x2="27.121" y2="19.695" gradientUnits="userSpaceOnUse"><stop stop-color="#FCA115"/><stop offset="1" stop-color="#F50039"/></linearGradient></defs></svg>